<?xml version="1.0" encoding="UTF-8" ?>
<!DOCTYPE svg PUBLIC "-//W3C//DTD SVG 1.1//EN" "http://www.w3.org/Graphics/SVG/1.1/DTD/svg11.dtd">
<svg width="1024pt" height="1024pt" viewBox="0 0 1024 1024" version="1.1" xmlns="http://www.w3.org/2000/svg">
<g id="#202020ff">
<path fill="#202020" opacity="1.00" d=" M 0.00 0.00 L 1024.00 0.00 L 1024.00 1024.00 L 0.00 1024.00 L 0.00 0.00 M 709.13 342.22 C 708.83 382.53 709.07 422.85 709.01 463.16 C 670.58 463.25 632.14 463.52 593.70 463.42 C 593.68 423.31 593.46 383.19 593.80 343.09 C 572.54 342.88 551.27 343.06 530.00 342.99 C 529.99 448.71 530.00 554.43 530.00 660.14 C 551.25 660.10 572.52 660.36 593.77 659.98 C 593.52 613.66 593.61 567.32 593.71 520.99 C 632.14 521.00 670.57 521.01 709.01 520.99 C 708.99 567.32 708.99 613.66 709.01 659.99 C 730.03 660.01 751.06 660.00 772.08 660.00 C 771.94 554.06 772.22 448.13 771.93 342.19 C 751.01 342.53 730.06 342.41 709.13 342.22 M 254.01 343.01 C 253.99 448.76 254.00 554.51 254.00 660.26 C 275.00 660.40 296.00 660.42 317.00 660.24 C 316.97 620.16 317.05 580.08 316.96 540.00 C 331.95 539.99 346.93 540.02 361.92 539.99 C 365.64 546.41 368.88 553.10 372.44 559.62 C 389.85 593.19 407.97 626.40 425.30 660.00 C 448.82 660.45 472.38 660.03 495.92 660.08 C 489.41 649.18 483.44 637.96 477.13 626.95 C 459.22 594.91 441.10 562.98 423.36 530.84 C 440.83 524.65 456.75 513.92 468.40 499.45 C 479.30 486.10 484.92 469.04 486.40 452.02 C 487.48 445.05 486.82 437.97 487.00 430.96 C 485.78 405.50 474.36 379.75 453.57 364.36 C 438.65 352.99 420.59 345.92 401.96 343.89 C 393.05 342.37 383.98 343.22 375.00 343.00 C 334.67 343.00 294.34 342.99 254.01 343.01 Z" />
<path fill="#202020" opacity="1.00" d=" M 316.96 396.00 C 339.67 396.01 362.38 395.98 385.09 396.01 C 396.80 397.24 408.79 402.35 415.73 412.24 C 420.76 419.44 422.93 428.30 423.35 436.98 C 424.88 449.45 422.36 463.13 413.68 472.65 C 406.54 479.97 396.74 484.29 386.70 485.79 C 363.50 487.59 340.21 486.55 316.97 486.98 C 317.01 456.65 317.03 426.33 316.96 396.00 Z" />
</g>
<g id="#f9f7f4ff">
<path fill="#f9f7f4" opacity="1.00" d=" M 709.13 342.22 C 730.06 342.41 751.01 342.53 771.93 342.19 C 772.22 448.13 771.94 554.06 772.08 660.00 C 751.06 660.00 730.03 660.01 709.01 659.99 C 708.99 613.66 708.99 567.32 709.01 520.99 C 670.57 521.01 632.14 521.00 593.71 520.99 C 593.61 567.32 593.52 613.66 593.77 659.98 C 572.52 660.36 551.25 660.10 530.00 660.14 C 530.00 554.43 529.99 448.71 530.00 342.99 C 551.27 343.06 572.54 342.88 593.80 343.09 C 593.46 383.19 593.68 423.31 593.70 463.42 C 632.14 463.52 670.58 463.25 709.01 463.16 C 709.07 422.85 708.83 382.53 709.13 342.22 Z" />
<path fill="#f9f7f4" opacity="1.00" d=" M 254.01 343.01 C 294.34 342.99 334.67 343.00 375.00 343.00 C 383.98 343.22 393.05 342.37 401.96 343.89 C 420.59 345.92 438.65 352.99 453.57 364.36 C 474.36 379.75 485.78 405.50 487.00 430.96 C 486.82 437.97 487.48 445.05 486.40 452.02 C 484.92 469.04 479.30 486.10 468.40 499.45 C 456.75 513.92 440.83 524.65 423.36 530.84 C 441.10 562.98 459.22 594.91 477.13 626.95 C 483.44 637.96 489.41 649.18 495.92 660.08 C 472.38 660.03 448.82 660.45 425.30 660.00 C 407.97 626.40 389.85 593.19 372.44 559.62 C 368.88 553.10 365.64 546.41 361.92 539.99 C 346.93 540.02 331.95 539.99 316.96 540.00 C 317.05 580.08 316.97 620.16 317.00 660.24 C 296.00 660.42 275.00 660.40 254.00 660.26 C 254.00 554.51 253.99 448.76 254.01 343.01 M 316.96 396.00 C 317.03 426.33 317.01 456.65 316.97 486.98 C 340.21 486.55 363.50 487.59 386.70 485.79 C 396.74 484.29 406.54 479.97 413.68 472.65 C 422.36 463.13 424.88 449.45 423.35 436.98 C 422.93 428.30 420.76 419.44 415.73 412.24 C 408.79 402.35 396.80 397.24 385.09 396.01 C 362.38 395.98 339.67 396.01 316.96 396.00 Z" />
</g>
</svg>
